<mxfile host="app.diagrams.net" modified="2023-05-15T02:50:59.813Z" agent="Mozilla/5.0 (Windows NT 10.0; Win64; x64) AppleWebKit/537.36 (KHTML, like Gecko) Chrome/113.0.0.0 Safari/537.36" etag="YZhbQi42JEI4gdyytmEp" version="21.2.9" type="google">
  <diagram name="PÃ¡gina-1" id="rrA9re0o1Lf5HBQZPJvd">
    <mxGraphModel grid="1" page="1" gridSize="10" guides="1" tooltips="1" connect="1" arrows="1" fold="1" pageScale="1" pageWidth="3300" pageHeight="4681" math="0" shadow="0">
      <root>
        <mxCell id="0" />
        <mxCell id="1" parent="0" />
        <mxCell id="lyQR7dfn_63zOgrAIOVA-13" value="&lt;i&gt;Goal&lt;/i&gt;" style="swimlane;fontStyle=1;align=center;verticalAlign=top;childLayout=stackLayout;horizontal=1;startSize=26;horizontalStack=0;resizeParent=1;resizeParentMax=0;resizeLast=0;collapsible=1;marginBottom=0;whiteSpace=wrap;html=1;" vertex="1" parent="1">
          <mxGeometry x="180" y="230" width="300" height="372" as="geometry" />
        </mxCell>
        <mxCell id="srRdRN-oWmKrugsw8aTW-12" value="#questionGoalName: string" style="text;strokeColor=none;fillColor=none;align=left;verticalAlign=top;spacingLeft=4;spacingRight=4;overflow=hidden;rotatable=0;points=[[0,0.5],[1,0.5]];portConstraint=eastwest;whiteSpace=wrap;html=1;" vertex="1" parent="lyQR7dfn_63zOgrAIOVA-13">
          <mxGeometry y="26" width="300" height="26" as="geometry" />
        </mxCell>
        <mxCell id="srRdRN-oWmKrugsw8aTW-13" value="#questionGoalDescription: string" style="text;strokeColor=none;fillColor=none;align=left;verticalAlign=top;spacingLeft=4;spacingRight=4;overflow=hidden;rotatable=0;points=[[0,0.5],[1,0.5]];portConstraint=eastwest;whiteSpace=wrap;html=1;" vertex="1" parent="lyQR7dfn_63zOgrAIOVA-13">
          <mxGeometry y="52" width="300" height="26" as="geometry" />
        </mxCell>
        <mxCell id="srRdRN-oWmKrugsw8aTW-14" value="#questionGoalPoints: string" style="text;strokeColor=none;fillColor=none;align=left;verticalAlign=top;spacingLeft=4;spacingRight=4;overflow=hidden;rotatable=0;points=[[0,0.5],[1,0.5]];portConstraint=eastwest;whiteSpace=wrap;html=1;" vertex="1" parent="lyQR7dfn_63zOgrAIOVA-13">
          <mxGeometry y="78" width="300" height="26" as="geometry" />
        </mxCell>
        <mxCell id="lyQR7dfn_63zOgrAIOVA-17" value="#_name: string" style="text;strokeColor=none;fillColor=none;align=left;verticalAlign=top;spacingLeft=4;spacingRight=4;overflow=hidden;rotatable=0;points=[[0,0.5],[1,0.5]];portConstraint=eastwest;whiteSpace=wrap;html=1;" vertex="1" parent="lyQR7dfn_63zOgrAIOVA-13">
          <mxGeometry y="104" width="300" height="26" as="geometry" />
        </mxCell>
        <mxCell id="lyQR7dfn_63zOgrAIOVA-14" value="#_description: string" style="text;strokeColor=none;fillColor=none;align=left;verticalAlign=top;spacingLeft=4;spacingRight=4;overflow=hidden;rotatable=0;points=[[0,0.5],[1,0.5]];portConstraint=eastwest;whiteSpace=wrap;html=1;" vertex="1" parent="lyQR7dfn_63zOgrAIOVA-13">
          <mxGeometry y="130" width="300" height="26" as="geometry" />
        </mxCell>
        <mxCell id="peohAKJxIeYFRGhAlKBV-2" value="#_rewardPoints: int" style="text;strokeColor=none;fillColor=none;align=left;verticalAlign=top;spacingLeft=4;spacingRight=4;overflow=hidden;rotatable=0;points=[[0,0.5],[1,0.5]];portConstraint=eastwest;whiteSpace=wrap;html=1;" vertex="1" parent="lyQR7dfn_63zOgrAIOVA-13">
          <mxGeometry y="156" width="300" height="26" as="geometry" />
        </mxCell>
        <mxCell id="peohAKJxIeYFRGhAlKBV-3" value="#_completionCount: int" style="text;strokeColor=none;fillColor=none;align=left;verticalAlign=top;spacingLeft=4;spacingRight=4;overflow=hidden;rotatable=0;points=[[0,0.5],[1,0.5]];portConstraint=eastwest;whiteSpace=wrap;html=1;" vertex="1" parent="lyQR7dfn_63zOgrAIOVA-13">
          <mxGeometry y="182" width="300" height="26" as="geometry" />
        </mxCell>
        <mxCell id="lyQR7dfn_63zOgrAIOVA-15" value="" style="line;strokeWidth=1;fillColor=none;align=left;verticalAlign=middle;spacingTop=-1;spacingLeft=3;spacingRight=3;rotatable=0;labelPosition=right;points=[];portConstraint=eastwest;strokeColor=inherit;" vertex="1" parent="lyQR7dfn_63zOgrAIOVA-13">
          <mxGeometry y="208" width="300" height="8" as="geometry" />
        </mxCell>
        <mxCell id="lyQR7dfn_63zOgrAIOVA-20" value="+&lt;i&gt;SaveGoal&lt;/i&gt;(): void" style="text;strokeColor=none;fillColor=none;align=left;verticalAlign=top;spacingLeft=4;spacingRight=4;overflow=hidden;rotatable=0;points=[[0,0.5],[1,0.5]];portConstraint=eastwest;whiteSpace=wrap;html=1;" vertex="1" parent="lyQR7dfn_63zOgrAIOVA-13">
          <mxGeometry y="216" width="300" height="26" as="geometry" />
        </mxCell>
        <mxCell id="peohAKJxIeYFRGhAlKBV-9" value="+RecordEvent():void" style="text;strokeColor=none;fillColor=none;align=left;verticalAlign=top;spacingLeft=4;spacingRight=4;overflow=hidden;rotatable=0;points=[[0,0.5],[1,0.5]];portConstraint=eastwest;whiteSpace=wrap;html=1;" vertex="1" parent="lyQR7dfn_63zOgrAIOVA-13">
          <mxGeometry y="242" width="300" height="26" as="geometry" />
        </mxCell>
        <mxCell id="peohAKJxIeYFRGhAlKBV-30" value="+CalculatePoints():int" style="text;strokeColor=none;fillColor=none;align=left;verticalAlign=top;spacingLeft=4;spacingRight=4;overflow=hidden;rotatable=0;points=[[0,0.5],[1,0.5]];portConstraint=eastwest;whiteSpace=wrap;html=1;" vertex="1" parent="lyQR7dfn_63zOgrAIOVA-13">
          <mxGeometry y="268" width="300" height="26" as="geometry" />
        </mxCell>
        <mxCell id="srRdRN-oWmKrugsw8aTW-11" value="+&lt;i style=&quot;border-color: var(--border-color);&quot;&gt;AskInformation&lt;/i&gt;():void" style="text;strokeColor=none;fillColor=none;align=left;verticalAlign=top;spacingLeft=4;spacingRight=4;overflow=hidden;rotatable=0;points=[[0,0.5],[1,0.5]];portConstraint=eastwest;whiteSpace=wrap;html=1;" vertex="1" parent="lyQR7dfn_63zOgrAIOVA-13">
          <mxGeometry y="294" width="300" height="26" as="geometry" />
        </mxCell>
        <mxCell id="srRdRN-oWmKrugsw8aTW-15" value="+&lt;i&gt;ToText&lt;/i&gt;(isShort: boolean): string&amp;nbsp;" style="text;strokeColor=none;fillColor=none;align=left;verticalAlign=top;spacingLeft=4;spacingRight=4;overflow=hidden;rotatable=0;points=[[0,0.5],[1,0.5]];portConstraint=eastwest;whiteSpace=wrap;html=1;" vertex="1" parent="lyQR7dfn_63zOgrAIOVA-13">
          <mxGeometry y="320" width="300" height="26" as="geometry" />
        </mxCell>
        <mxCell id="srRdRN-oWmKrugsw8aTW-16" value="+GetName():string" style="text;strokeColor=none;fillColor=none;align=left;verticalAlign=top;spacingLeft=4;spacingRight=4;overflow=hidden;rotatable=0;points=[[0,0.5],[1,0.5]];portConstraint=eastwest;whiteSpace=wrap;html=1;" vertex="1" parent="lyQR7dfn_63zOgrAIOVA-13">
          <mxGeometry y="346" width="300" height="26" as="geometry" />
        </mxCell>
        <mxCell id="lyQR7dfn_63zOgrAIOVA-27" value="Program" style="swimlane;fontStyle=1;align=center;verticalAlign=top;childLayout=stackLayout;horizontal=1;startSize=26;horizontalStack=0;resizeParent=1;resizeParentMax=0;resizeLast=0;collapsible=1;marginBottom=0;whiteSpace=wrap;html=1;" vertex="1" parent="1">
          <mxGeometry x="17" y="680" width="223" height="164" as="geometry" />
        </mxCell>
        <mxCell id="lyQR7dfn_63zOgrAIOVA-28" value="&amp;nbsp;" style="text;strokeColor=none;fillColor=none;align=left;verticalAlign=top;spacingLeft=4;spacingRight=4;overflow=hidden;rotatable=0;points=[[0,0.5],[1,0.5]];portConstraint=eastwest;whiteSpace=wrap;html=1;" vertex="1" parent="lyQR7dfn_63zOgrAIOVA-27">
          <mxGeometry y="26" width="223" height="26" as="geometry" />
        </mxCell>
        <mxCell id="lyQR7dfn_63zOgrAIOVA-29" value="" style="line;strokeWidth=1;fillColor=none;align=left;verticalAlign=middle;spacingTop=-1;spacingLeft=3;spacingRight=3;rotatable=0;labelPosition=right;points=[];portConstraint=eastwest;strokeColor=inherit;" vertex="1" parent="lyQR7dfn_63zOgrAIOVA-27">
          <mxGeometry y="52" width="223" height="8" as="geometry" />
        </mxCell>
        <mxCell id="lyQR7dfn_63zOgrAIOVA-30" value="main: void" style="text;strokeColor=none;fillColor=none;align=left;verticalAlign=top;spacingLeft=4;spacingRight=4;overflow=hidden;rotatable=0;points=[[0,0.5],[1,0.5]];portConstraint=eastwest;whiteSpace=wrap;html=1;" vertex="1" parent="lyQR7dfn_63zOgrAIOVA-27">
          <mxGeometry y="60" width="223" height="26" as="geometry" />
        </mxCell>
        <mxCell id="peohAKJxIeYFRGhAlKBV-31" value="PrintMenu(): int" style="text;strokeColor=none;fillColor=none;align=left;verticalAlign=top;spacingLeft=4;spacingRight=4;overflow=hidden;rotatable=0;points=[[0,0.5],[1,0.5]];portConstraint=eastwest;whiteSpace=wrap;html=1;" vertex="1" parent="lyQR7dfn_63zOgrAIOVA-27">
          <mxGeometry y="86" width="223" height="26" as="geometry" />
        </mxCell>
        <mxCell id="srRdRN-oWmKrugsw8aTW-17" value="PrintMenuGoalCreation():int" style="text;strokeColor=none;fillColor=none;align=left;verticalAlign=top;spacingLeft=4;spacingRight=4;overflow=hidden;rotatable=0;points=[[0,0.5],[1,0.5]];portConstraint=eastwest;whiteSpace=wrap;html=1;" vertex="1" parent="lyQR7dfn_63zOgrAIOVA-27">
          <mxGeometry y="112" width="223" height="26" as="geometry" />
        </mxCell>
        <mxCell id="srRdRN-oWmKrugsw8aTW-18" value="LoadGoals(filename: string): List&amp;lt;Goal&amp;gt;" style="text;strokeColor=none;fillColor=none;align=left;verticalAlign=top;spacingLeft=4;spacingRight=4;overflow=hidden;rotatable=0;points=[[0,0.5],[1,0.5]];portConstraint=eastwest;whiteSpace=wrap;html=1;" vertex="1" parent="lyQR7dfn_63zOgrAIOVA-27">
          <mxGeometry y="138" width="223" height="26" as="geometry" />
        </mxCell>
        <mxCell id="lyQR7dfn_63zOgrAIOVA-31" value="Actor" style="shape=umlActor;verticalLabelPosition=bottom;verticalAlign=top;html=1;" vertex="1" parent="1">
          <mxGeometry x="520" y="700" width="30" height="60" as="geometry" />
        </mxCell>
        <mxCell id="lyQR7dfn_63zOgrAIOVA-40" value="" style="group" vertex="1" connectable="0" parent="1">
          <mxGeometry x="304" y="776" width="180" height="180" as="geometry" />
        </mxCell>
        <mxCell id="lyQR7dfn_63zOgrAIOVA-39" value="" style="whiteSpace=wrap;html=1;aspect=fixed;" vertex="1" parent="lyQR7dfn_63zOgrAIOVA-40">
          <mxGeometry width="180" height="180" as="geometry" />
        </mxCell>
        <mxCell id="lyQR7dfn_63zOgrAIOVA-38" value="&lt;h1 style=&quot;font-size: 16px;&quot;&gt;&lt;span style=&quot;background-color: initial;&quot;&gt;&lt;font style=&quot;font-size: 16px;&quot;&gt;Read Option&lt;/font&gt;&lt;/span&gt;&lt;/h1&gt;&lt;h1 style=&quot;&quot;&gt;&lt;span style=&quot;background-color: initial; font-weight: normal;&quot;&gt;&lt;font style=&quot;font-size: 12px;&quot;&gt;User provides the option according menu displayed and operation is performed. Menu is repeated until closing app&lt;/font&gt;&lt;/span&gt;&lt;br&gt;&lt;/h1&gt;" style="text;html=1;strokeColor=none;fillColor=none;spacing=5;spacingTop=-20;whiteSpace=wrap;overflow=hidden;rounded=0;" vertex="1" parent="lyQR7dfn_63zOgrAIOVA-40">
          <mxGeometry x="2" y="5" width="176" height="170" as="geometry" />
        </mxCell>
        <mxCell id="lyQR7dfn_63zOgrAIOVA-48" value="" style="group" connectable="0" vertex="1" parent="1">
          <mxGeometry x="300" y="540" width="100" height="70" as="geometry" />
        </mxCell>
        <mxCell id="lyQR7dfn_63zOgrAIOVA-33" value="" style="verticalLabelPosition=bottom;verticalAlign=top;html=1;strokeWidth=2;shape=mxgraph.arrows2.arrow;dy=0.6;dx=40;notch=0;" vertex="1" parent="lyQR7dfn_63zOgrAIOVA-48">
          <mxGeometry x="44" y="150" width="100" height="32" as="geometry" />
        </mxCell>
        <mxCell id="lyQR7dfn_63zOgrAIOVA-47" value="" style="verticalLabelPosition=bottom;verticalAlign=top;html=1;strokeWidth=2;shape=mxgraph.arrows2.arrow;dy=0.6;dx=40;notch=0;rotation=-180;" vertex="1" parent="lyQR7dfn_63zOgrAIOVA-48">
          <mxGeometry x="44" y="188" width="100" height="32" as="geometry" />
        </mxCell>
        <mxCell id="lyQR7dfn_63zOgrAIOVA-54" style="edgeStyle=orthogonalEdgeStyle;rounded=0;orthogonalLoop=1;jettySize=auto;html=1;exitX=1;exitY=0.5;exitDx=0;exitDy=0;exitPerimeter=0;entryX=0;entryY=0.5;entryDx=0;entryDy=0;" edge="1" parent="1" source="lyQR7dfn_63zOgrAIOVA-49" target="lyQR7dfn_63zOgrAIOVA-50">
          <mxGeometry relative="1" as="geometry" />
        </mxCell>
        <mxCell id="lyQR7dfn_63zOgrAIOVA-49" value="Write entry at menu" style="strokeWidth=2;html=1;shape=mxgraph.flowchart.document2;whiteSpace=wrap;size=0.25;" vertex="1" parent="1">
          <mxGeometry x="70" y="980" width="100" height="60" as="geometry" />
        </mxCell>
        <mxCell id="lyQR7dfn_63zOgrAIOVA-55" style="edgeStyle=orthogonalEdgeStyle;rounded=0;orthogonalLoop=1;jettySize=auto;html=1;exitX=1;exitY=0.5;exitDx=0;exitDy=0;entryX=0;entryY=0.5;entryDx=0;entryDy=0;" edge="1" parent="1" source="lyQR7dfn_63zOgrAIOVA-50" target="lyQR7dfn_63zOgrAIOVA-51">
          <mxGeometry relative="1" as="geometry" />
        </mxCell>
        <mxCell id="lyQR7dfn_63zOgrAIOVA-50" value="PrintMenu() is executed" style="whiteSpace=wrap;html=1;aspect=fixed;" vertex="1" parent="1">
          <mxGeometry x="200" y="970" width="80" height="80" as="geometry" />
        </mxCell>
        <mxCell id="lyQR7dfn_63zOgrAIOVA-56" style="edgeStyle=orthogonalEdgeStyle;rounded=0;orthogonalLoop=1;jettySize=auto;html=1;exitX=1;exitY=0.5;exitDx=0;exitDy=0;entryX=0;entryY=0.5;entryDx=0;entryDy=0;" edge="1" parent="1" source="lyQR7dfn_63zOgrAIOVA-51" target="lyQR7dfn_63zOgrAIOVA-52">
          <mxGeometry relative="1" as="geometry" />
        </mxCell>
        <mxCell id="lyQR7dfn_63zOgrAIOVA-51" value="User picks option from main menu" style="whiteSpace=wrap;html=1;aspect=fixed;" vertex="1" parent="1">
          <mxGeometry x="310" y="970" width="80" height="80" as="geometry" />
        </mxCell>
        <mxCell id="lyQR7dfn_63zOgrAIOVA-52" value="Operation is performed" style="whiteSpace=wrap;html=1;aspect=fixed;" vertex="1" parent="1">
          <mxGeometry x="414" y="970" width="80" height="80" as="geometry" />
        </mxCell>
        <mxCell id="lyQR7dfn_63zOgrAIOVA-58" style="edgeStyle=orthogonalEdgeStyle;rounded=0;orthogonalLoop=1;jettySize=auto;html=1;exitX=1;exitY=0.5;exitDx=0;exitDy=0;exitPerimeter=0;entryX=0;entryY=0.5;entryDx=0;entryDy=0;" edge="1" parent="1" source="lyQR7dfn_63zOgrAIOVA-59" target="lyQR7dfn_63zOgrAIOVA-61">
          <mxGeometry relative="1" as="geometry" />
        </mxCell>
        <mxCell id="lyQR7dfn_63zOgrAIOVA-59" value="Create new goal" style="strokeWidth=2;html=1;shape=mxgraph.flowchart.document2;whiteSpace=wrap;size=0.25;" vertex="1" parent="1">
          <mxGeometry x="70" y="1090" width="100" height="60" as="geometry" />
        </mxCell>
        <mxCell id="lyQR7dfn_63zOgrAIOVA-60" style="edgeStyle=orthogonalEdgeStyle;rounded=0;orthogonalLoop=1;jettySize=auto;html=1;exitX=1;exitY=0.5;exitDx=0;exitDy=0;entryX=0;entryY=0.5;entryDx=0;entryDy=0;" edge="1" parent="1" source="lyQR7dfn_63zOgrAIOVA-61" target="lyQR7dfn_63zOgrAIOVA-63">
          <mxGeometry relative="1" as="geometry" />
        </mxCell>
        <mxCell id="lyQR7dfn_63zOgrAIOVA-61" value="PrintMenuGoalCreation() is executed" style="whiteSpace=wrap;html=1;" vertex="1" parent="1">
          <mxGeometry x="200" y="1080" width="160" height="80" as="geometry" />
        </mxCell>
        <mxCell id="lyQR7dfn_63zOgrAIOVA-62" style="edgeStyle=orthogonalEdgeStyle;rounded=0;orthogonalLoop=1;jettySize=auto;html=1;exitX=1;exitY=0.5;exitDx=0;exitDy=0;entryX=0;entryY=0.5;entryDx=0;entryDy=0;" edge="1" parent="1" source="lyQR7dfn_63zOgrAIOVA-63" target="lyQR7dfn_63zOgrAIOVA-65">
          <mxGeometry relative="1" as="geometry" />
        </mxCell>
        <mxCell id="lyQR7dfn_63zOgrAIOVA-63" value="Based on goal selection respective Class and constrcutor are invoked" style="whiteSpace=wrap;html=1;" vertex="1" parent="1">
          <mxGeometry x="390" y="1080" width="100" height="80" as="geometry" />
        </mxCell>
        <mxCell id="lyQR7dfn_63zOgrAIOVA-65" value="AskInformation() is executed" style="whiteSpace=wrap;html=1;" vertex="1" parent="1">
          <mxGeometry x="524" y="1080" width="116" height="80" as="geometry" />
        </mxCell>
        <mxCell id="lyQR7dfn_63zOgrAIOVA-67" style="edgeStyle=orthogonalEdgeStyle;rounded=0;orthogonalLoop=1;jettySize=auto;html=1;exitX=1;exitY=0.5;exitDx=0;exitDy=0;exitPerimeter=0;entryX=0;entryY=0.5;entryDx=0;entryDy=0;" edge="1" parent="1" source="lyQR7dfn_63zOgrAIOVA-68" target="lyQR7dfn_63zOgrAIOVA-70">
          <mxGeometry relative="1" as="geometry" />
        </mxCell>
        <mxCell id="lyQR7dfn_63zOgrAIOVA-68" value="List Goals" style="strokeWidth=2;html=1;shape=mxgraph.flowchart.document2;whiteSpace=wrap;size=0.25;" vertex="1" parent="1">
          <mxGeometry x="70" y="1200" width="100" height="60" as="geometry" />
        </mxCell>
        <mxCell id="lyQR7dfn_63zOgrAIOVA-69" style="edgeStyle=orthogonalEdgeStyle;rounded=0;orthogonalLoop=1;jettySize=auto;html=1;exitX=1;exitY=0.5;exitDx=0;exitDy=0;entryX=0;entryY=0.5;entryDx=0;entryDy=0;" edge="1" parent="1" source="lyQR7dfn_63zOgrAIOVA-70" target="lyQR7dfn_63zOgrAIOVA-72">
          <mxGeometry relative="1" as="geometry" />
        </mxCell>
        <mxCell id="lyQR7dfn_63zOgrAIOVA-70" value="Goal List is iterated" style="whiteSpace=wrap;html=1;aspect=fixed;" vertex="1" parent="1">
          <mxGeometry x="200" y="1190" width="80" height="80" as="geometry" />
        </mxCell>
        <mxCell id="lyQR7dfn_63zOgrAIOVA-72" value="Each goal object is displayed calling ToText(true)" style="whiteSpace=wrap;html=1;aspect=fixed;" vertex="1" parent="1">
          <mxGeometry x="310" y="1190" width="80" height="80" as="geometry" />
        </mxCell>
        <mxCell id="lyQR7dfn_63zOgrAIOVA-76" style="edgeStyle=orthogonalEdgeStyle;rounded=0;orthogonalLoop=1;jettySize=auto;html=1;exitX=1;exitY=0.5;exitDx=0;exitDy=0;exitPerimeter=0;entryX=0;entryY=0.5;entryDx=0;entryDy=0;" edge="1" parent="1" source="lyQR7dfn_63zOgrAIOVA-77" target="lyQR7dfn_63zOgrAIOVA-79">
          <mxGeometry relative="1" as="geometry" />
        </mxCell>
        <mxCell id="lyQR7dfn_63zOgrAIOVA-77" value="Save Goals" style="strokeWidth=2;html=1;shape=mxgraph.flowchart.document2;whiteSpace=wrap;size=0.25;" vertex="1" parent="1">
          <mxGeometry x="70" y="1310" width="100" height="60" as="geometry" />
        </mxCell>
        <mxCell id="lyQR7dfn_63zOgrAIOVA-78" style="edgeStyle=orthogonalEdgeStyle;rounded=0;orthogonalLoop=1;jettySize=auto;html=1;exitX=1;exitY=0.5;exitDx=0;exitDy=0;entryX=0;entryY=0.5;entryDx=0;entryDy=0;" edge="1" parent="1" source="lyQR7dfn_63zOgrAIOVA-79" target="lyQR7dfn_63zOgrAIOVA-81">
          <mxGeometry relative="1" as="geometry" />
        </mxCell>
        <mxCell id="lyQR7dfn_63zOgrAIOVA-79" value="User enters filename" style="whiteSpace=wrap;html=1;aspect=fixed;" vertex="1" parent="1">
          <mxGeometry x="200" y="1300" width="80" height="80" as="geometry" />
        </mxCell>
        <mxCell id="lyQR7dfn_63zOgrAIOVA-80" style="edgeStyle=orthogonalEdgeStyle;rounded=0;orthogonalLoop=1;jettySize=auto;html=1;exitX=1;exitY=0.5;exitDx=0;exitDy=0;entryX=0;entryY=0.5;entryDx=0;entryDy=0;" edge="1" parent="1" source="lyQR7dfn_63zOgrAIOVA-81" target="lyQR7dfn_63zOgrAIOVA-83">
          <mxGeometry relative="1" as="geometry" />
        </mxCell>
        <mxCell id="lyQR7dfn_63zOgrAIOVA-81" value="Goal list is iterated" style="whiteSpace=wrap;html=1;aspect=fixed;" vertex="1" parent="1">
          <mxGeometry x="310" y="1300" width="80" height="80" as="geometry" />
        </mxCell>
        <mxCell id="lyQR7dfn_63zOgrAIOVA-83" value="Each goal record is saved using ToText(false)" style="whiteSpace=wrap;html=1;aspect=fixed;" vertex="1" parent="1">
          <mxGeometry x="414" y="1300" width="80" height="80" as="geometry" />
        </mxCell>
        <mxCell id="peohAKJxIeYFRGhAlKBV-10" value="SimpleGoal" style="swimlane;fontStyle=1;align=center;verticalAlign=top;childLayout=stackLayout;horizontal=1;startSize=26;horizontalStack=0;resizeParent=1;resizeParentMax=0;resizeLast=0;collapsible=1;marginBottom=0;whiteSpace=wrap;html=1;" vertex="1" parent="1">
          <mxGeometry x="10" y="20" width="180" height="86" as="geometry" />
        </mxCell>
        <mxCell id="peohAKJxIeYFRGhAlKBV-14" value="&amp;nbsp;" style="text;strokeColor=none;fillColor=none;align=left;verticalAlign=top;spacingLeft=4;spacingRight=4;overflow=hidden;rotatable=0;points=[[0,0.5],[1,0.5]];portConstraint=eastwest;whiteSpace=wrap;html=1;" vertex="1" parent="peohAKJxIeYFRGhAlKBV-10">
          <mxGeometry y="26" width="180" height="26" as="geometry" />
        </mxCell>
        <mxCell id="peohAKJxIeYFRGhAlKBV-15" value="" style="line;strokeWidth=1;fillColor=none;align=left;verticalAlign=middle;spacingTop=-1;spacingLeft=3;spacingRight=3;rotatable=0;labelPosition=right;points=[];portConstraint=eastwest;strokeColor=inherit;" vertex="1" parent="peohAKJxIeYFRGhAlKBV-10">
          <mxGeometry y="52" width="180" height="8" as="geometry" />
        </mxCell>
        <mxCell id="srRdRN-oWmKrugsw8aTW-6" value="&amp;nbsp;" style="text;strokeColor=none;fillColor=none;align=left;verticalAlign=top;spacingLeft=4;spacingRight=4;overflow=hidden;rotatable=0;points=[[0,0.5],[1,0.5]];portConstraint=eastwest;whiteSpace=wrap;html=1;" vertex="1" parent="peohAKJxIeYFRGhAlKBV-10">
          <mxGeometry y="60" width="180" height="26" as="geometry" />
        </mxCell>
        <mxCell id="peohAKJxIeYFRGhAlKBV-22" value="EternalGoal" style="swimlane;fontStyle=1;align=center;verticalAlign=top;childLayout=stackLayout;horizontal=1;startSize=26;horizontalStack=0;resizeParent=1;resizeParentMax=0;resizeLast=0;collapsible=1;marginBottom=0;whiteSpace=wrap;html=1;" vertex="1" parent="1">
          <mxGeometry x="200" y="20" width="190" height="86" as="geometry" />
        </mxCell>
        <mxCell id="peohAKJxIeYFRGhAlKBV-23" value="&amp;nbsp;" style="text;strokeColor=none;fillColor=none;align=left;verticalAlign=top;spacingLeft=4;spacingRight=4;overflow=hidden;rotatable=0;points=[[0,0.5],[1,0.5]];portConstraint=eastwest;whiteSpace=wrap;html=1;" vertex="1" parent="peohAKJxIeYFRGhAlKBV-22">
          <mxGeometry y="26" width="190" height="26" as="geometry" />
        </mxCell>
        <mxCell id="peohAKJxIeYFRGhAlKBV-24" value="" style="line;strokeWidth=1;fillColor=none;align=left;verticalAlign=middle;spacingTop=-1;spacingLeft=3;spacingRight=3;rotatable=0;labelPosition=right;points=[];portConstraint=eastwest;strokeColor=inherit;" vertex="1" parent="peohAKJxIeYFRGhAlKBV-22">
          <mxGeometry y="52" width="190" height="8" as="geometry" />
        </mxCell>
        <mxCell id="srRdRN-oWmKrugsw8aTW-7" value="&amp;nbsp;" style="text;strokeColor=none;fillColor=none;align=left;verticalAlign=top;spacingLeft=4;spacingRight=4;overflow=hidden;rotatable=0;points=[[0,0.5],[1,0.5]];portConstraint=eastwest;whiteSpace=wrap;html=1;" vertex="1" parent="peohAKJxIeYFRGhAlKBV-22">
          <mxGeometry y="60" width="190" height="26" as="geometry" />
        </mxCell>
        <mxCell id="peohAKJxIeYFRGhAlKBV-26" value="ChecklistGoal" style="swimlane;fontStyle=1;align=center;verticalAlign=top;childLayout=stackLayout;horizontal=1;startSize=26;horizontalStack=0;resizeParent=1;resizeParentMax=0;resizeLast=0;collapsible=1;marginBottom=0;whiteSpace=wrap;html=1;" vertex="1" parent="1">
          <mxGeometry x="400" y="20" width="240" height="112" as="geometry" />
        </mxCell>
        <mxCell id="peohAKJxIeYFRGhAlKBV-27" value="-_bonusQualificationGoalCount: int" style="text;strokeColor=none;fillColor=none;align=left;verticalAlign=top;spacingLeft=4;spacingRight=4;overflow=hidden;rotatable=0;points=[[0,0.5],[1,0.5]];portConstraint=eastwest;whiteSpace=wrap;html=1;" vertex="1" parent="peohAKJxIeYFRGhAlKBV-26">
          <mxGeometry y="26" width="240" height="26" as="geometry" />
        </mxCell>
        <mxCell id="srRdRN-oWmKrugsw8aTW-10" value="-_bonusQualificationGoalRewardPoints: int" style="text;strokeColor=none;fillColor=none;align=left;verticalAlign=top;spacingLeft=4;spacingRight=4;overflow=hidden;rotatable=0;points=[[0,0.5],[1,0.5]];portConstraint=eastwest;whiteSpace=wrap;html=1;" vertex="1" parent="peohAKJxIeYFRGhAlKBV-26">
          <mxGeometry y="52" width="240" height="26" as="geometry" />
        </mxCell>
        <mxCell id="peohAKJxIeYFRGhAlKBV-28" value="" style="line;strokeWidth=1;fillColor=none;align=left;verticalAlign=middle;spacingTop=-1;spacingLeft=3;spacingRight=3;rotatable=0;labelPosition=right;points=[];portConstraint=eastwest;strokeColor=inherit;" vertex="1" parent="peohAKJxIeYFRGhAlKBV-26">
          <mxGeometry y="78" width="240" height="8" as="geometry" />
        </mxCell>
        <mxCell id="srRdRN-oWmKrugsw8aTW-8" value="&amp;nbsp;" style="text;strokeColor=none;fillColor=none;align=left;verticalAlign=top;spacingLeft=4;spacingRight=4;overflow=hidden;rotatable=0;points=[[0,0.5],[1,0.5]];portConstraint=eastwest;whiteSpace=wrap;html=1;" vertex="1" parent="peohAKJxIeYFRGhAlKBV-26">
          <mxGeometry y="86" width="240" height="26" as="geometry" />
        </mxCell>
        <mxCell id="peohAKJxIeYFRGhAlKBV-40" value="Extends" style="endArrow=block;endSize=16;endFill=0;html=1;rounded=0;exitX=0.416;exitY=1.06;exitDx=0;exitDy=0;exitPerimeter=0;entryX=0.79;entryY=-0.001;entryDx=0;entryDy=0;entryPerimeter=0;" edge="1" parent="1" source="srRdRN-oWmKrugsw8aTW-8" target="lyQR7dfn_63zOgrAIOVA-13">
          <mxGeometry width="160" relative="1" as="geometry">
            <mxPoint x="550" y="300" as="sourcePoint" />
            <mxPoint x="780" y="260" as="targetPoint" />
          </mxGeometry>
        </mxCell>
        <mxCell id="peohAKJxIeYFRGhAlKBV-41" value="Extends" style="endArrow=block;endSize=16;endFill=0;html=1;rounded=0;entryX=0.535;entryY=-0.004;entryDx=0;entryDy=0;entryPerimeter=0;exitX=0.54;exitY=0.993;exitDx=0;exitDy=0;exitPerimeter=0;" edge="1" parent="1" source="srRdRN-oWmKrugsw8aTW-7" target="lyQR7dfn_63zOgrAIOVA-13">
          <mxGeometry width="160" relative="1" as="geometry">
            <mxPoint x="330" y="140" as="sourcePoint" />
            <mxPoint x="308" y="208" as="targetPoint" />
          </mxGeometry>
        </mxCell>
        <mxCell id="peohAKJxIeYFRGhAlKBV-42" value="Extends" style="endArrow=block;endSize=16;endFill=0;html=1;rounded=0;entryX=0.204;entryY=-0.008;entryDx=0;entryDy=0;entryPerimeter=0;exitX=0.606;exitY=1.027;exitDx=0;exitDy=0;exitPerimeter=0;" edge="1" parent="1" source="srRdRN-oWmKrugsw8aTW-6" target="lyQR7dfn_63zOgrAIOVA-13">
          <mxGeometry width="160" relative="1" as="geometry">
            <mxPoint x="150" y="140" as="sourcePoint" />
            <mxPoint x="130" y="208" as="targetPoint" />
          </mxGeometry>
        </mxCell>
        <mxCell id="peohAKJxIeYFRGhAlKBV-44" value="" style="endArrow=none;html=1;rounded=0;entryX=0.282;entryY=1.067;entryDx=0;entryDy=0;entryPerimeter=0;" edge="1" parent="1" source="lyQR7dfn_63zOgrAIOVA-27" target="srRdRN-oWmKrugsw8aTW-16">
          <mxGeometry width="50" height="50" relative="1" as="geometry">
            <mxPoint x="240" y="630" as="sourcePoint" />
            <mxPoint x="100" y="600" as="targetPoint" />
          </mxGeometry>
        </mxCell>
        <mxCell id="srRdRN-oWmKrugsw8aTW-1" value="ReductionGoal" style="swimlane;fontStyle=1;align=center;verticalAlign=top;childLayout=stackLayout;horizontal=1;startSize=26;horizontalStack=0;resizeParent=1;resizeParentMax=0;resizeLast=0;collapsible=1;marginBottom=0;whiteSpace=wrap;html=1;" vertex="1" parent="1">
          <mxGeometry x="650" y="20" width="200" height="86" as="geometry" />
        </mxCell>
        <mxCell id="srRdRN-oWmKrugsw8aTW-2" value="&amp;nbsp;" style="text;strokeColor=none;fillColor=none;align=left;verticalAlign=top;spacingLeft=4;spacingRight=4;overflow=hidden;rotatable=0;points=[[0,0.5],[1,0.5]];portConstraint=eastwest;whiteSpace=wrap;html=1;" vertex="1" parent="srRdRN-oWmKrugsw8aTW-1">
          <mxGeometry y="26" width="200" height="26" as="geometry" />
        </mxCell>
        <mxCell id="srRdRN-oWmKrugsw8aTW-3" value="" style="line;strokeWidth=1;fillColor=none;align=left;verticalAlign=middle;spacingTop=-1;spacingLeft=3;spacingRight=3;rotatable=0;labelPosition=right;points=[];portConstraint=eastwest;strokeColor=inherit;" vertex="1" parent="srRdRN-oWmKrugsw8aTW-1">
          <mxGeometry y="52" width="200" height="8" as="geometry" />
        </mxCell>
        <mxCell id="srRdRN-oWmKrugsw8aTW-9" value="&amp;nbsp;" style="text;strokeColor=none;fillColor=none;align=left;verticalAlign=top;spacingLeft=4;spacingRight=4;overflow=hidden;rotatable=0;points=[[0,0.5],[1,0.5]];portConstraint=eastwest;whiteSpace=wrap;html=1;" vertex="1" parent="srRdRN-oWmKrugsw8aTW-1">
          <mxGeometry y="60" width="200" height="26" as="geometry" />
        </mxCell>
        <mxCell id="srRdRN-oWmKrugsw8aTW-5" value="Extends" style="endArrow=block;endSize=16;endFill=0;html=1;rounded=0;exitX=0.265;exitY=1.027;exitDx=0;exitDy=0;exitPerimeter=0;entryX=1;entryY=0;entryDx=0;entryDy=0;" edge="1" parent="1" source="srRdRN-oWmKrugsw8aTW-9" target="lyQR7dfn_63zOgrAIOVA-13">
          <mxGeometry width="160" relative="1" as="geometry">
            <mxPoint x="570" y="108" as="sourcePoint" />
            <mxPoint x="552" y="210" as="targetPoint" />
          </mxGeometry>
        </mxCell>
        <mxCell id="srRdRN-oWmKrugsw8aTW-19" style="edgeStyle=orthogonalEdgeStyle;rounded=0;orthogonalLoop=1;jettySize=auto;html=1;exitX=1;exitY=0.5;exitDx=0;exitDy=0;entryX=0;entryY=0.5;entryDx=0;entryDy=0;" edge="1" parent="1">
          <mxGeometry relative="1" as="geometry">
            <mxPoint x="640" y="1119.7" as="sourcePoint" />
            <mxPoint x="670" y="1119.7" as="targetPoint" />
          </mxGeometry>
        </mxCell>
        <mxCell id="srRdRN-oWmKrugsw8aTW-21" value="New goal object is added to goal list" style="whiteSpace=wrap;html=1;" vertex="1" parent="1">
          <mxGeometry x="670" y="1080" width="116" height="80" as="geometry" />
        </mxCell>
        <mxCell id="srRdRN-oWmKrugsw8aTW-22" style="edgeStyle=orthogonalEdgeStyle;rounded=0;orthogonalLoop=1;jettySize=auto;html=1;exitX=1;exitY=0.5;exitDx=0;exitDy=0;exitPerimeter=0;entryX=0;entryY=0.5;entryDx=0;entryDy=0;" edge="1" parent="1" source="srRdRN-oWmKrugsw8aTW-23" target="srRdRN-oWmKrugsw8aTW-25">
          <mxGeometry relative="1" as="geometry" />
        </mxCell>
        <mxCell id="srRdRN-oWmKrugsw8aTW-23" value="Load Goals" style="strokeWidth=2;html=1;shape=mxgraph.flowchart.document2;whiteSpace=wrap;size=0.25;" vertex="1" parent="1">
          <mxGeometry x="70" y="1420" width="100" height="60" as="geometry" />
        </mxCell>
        <mxCell id="srRdRN-oWmKrugsw8aTW-24" style="edgeStyle=orthogonalEdgeStyle;rounded=0;orthogonalLoop=1;jettySize=auto;html=1;exitX=1;exitY=0.5;exitDx=0;exitDy=0;entryX=0;entryY=0.5;entryDx=0;entryDy=0;" edge="1" parent="1" source="srRdRN-oWmKrugsw8aTW-25" target="srRdRN-oWmKrugsw8aTW-27">
          <mxGeometry relative="1" as="geometry" />
        </mxCell>
        <mxCell id="srRdRN-oWmKrugsw8aTW-25" value="User enters filename and&amp;nbsp;LoadGoals()&lt;br&gt;is executed" style="whiteSpace=wrap;html=1;" vertex="1" parent="1">
          <mxGeometry x="200" y="1410" width="90" height="80" as="geometry" />
        </mxCell>
        <mxCell id="srRdRN-oWmKrugsw8aTW-26" style="edgeStyle=orthogonalEdgeStyle;rounded=0;orthogonalLoop=1;jettySize=auto;html=1;exitX=1;exitY=0.5;exitDx=0;exitDy=0;entryX=0;entryY=0.5;entryDx=0;entryDy=0;" edge="1" parent="1" source="srRdRN-oWmKrugsw8aTW-27" target="srRdRN-oWmKrugsw8aTW-29">
          <mxGeometry relative="1" as="geometry" />
        </mxCell>
        <mxCell id="srRdRN-oWmKrugsw8aTW-27" value="File lines are iterated" style="whiteSpace=wrap;html=1;aspect=fixed;" vertex="1" parent="1">
          <mxGeometry x="320" y="1410" width="80" height="80" as="geometry" />
        </mxCell>
        <mxCell id="srRdRN-oWmKrugsw8aTW-28" style="edgeStyle=orthogonalEdgeStyle;rounded=0;orthogonalLoop=1;jettySize=auto;html=1;exitX=1;exitY=0.5;exitDx=0;exitDy=0;entryX=0;entryY=0.5;entryDx=0;entryDy=0;" edge="1" parent="1" source="srRdRN-oWmKrugsw8aTW-29" target="srRdRN-oWmKrugsw8aTW-30">
          <mxGeometry relative="1" as="geometry" />
        </mxCell>
        <mxCell id="srRdRN-oWmKrugsw8aTW-29" value="Each file line is splitted by &#39;,&#39;&amp;nbsp;" style="whiteSpace=wrap;html=1;aspect=fixed;" vertex="1" parent="1">
          <mxGeometry x="424" y="1410" width="80" height="80" as="geometry" />
        </mxCell>
        <mxCell id="srRdRN-oWmKrugsw8aTW-30" value="Values shared by all child classes are load in temp vars" style="whiteSpace=wrap;html=1;aspect=fixed;" vertex="1" parent="1">
          <mxGeometry x="530" y="1410" width="80" height="80" as="geometry" />
        </mxCell>
        <mxCell id="srRdRN-oWmKrugsw8aTW-31" style="edgeStyle=orthogonalEdgeStyle;rounded=0;orthogonalLoop=1;jettySize=auto;html=1;exitX=1;exitY=0.5;exitDx=0;exitDy=0;exitPerimeter=0;entryX=0;entryY=0.5;entryDx=0;entryDy=0;" edge="1" parent="1" source="srRdRN-oWmKrugsw8aTW-32" target="srRdRN-oWmKrugsw8aTW-34">
          <mxGeometry relative="1" as="geometry" />
        </mxCell>
        <mxCell id="srRdRN-oWmKrugsw8aTW-32" value="Record Event" style="strokeWidth=2;html=1;shape=mxgraph.flowchart.document2;whiteSpace=wrap;size=0.25;" vertex="1" parent="1">
          <mxGeometry x="70" y="1530" width="100" height="60" as="geometry" />
        </mxCell>
        <mxCell id="srRdRN-oWmKrugsw8aTW-33" style="edgeStyle=orthogonalEdgeStyle;rounded=0;orthogonalLoop=1;jettySize=auto;html=1;exitX=1;exitY=0.5;exitDx=0;exitDy=0;entryX=0;entryY=0.5;entryDx=0;entryDy=0;" edge="1" parent="1" target="srRdRN-oWmKrugsw8aTW-36">
          <mxGeometry relative="1" as="geometry">
            <mxPoint x="300.0000000000002" y="1560" as="sourcePoint" />
          </mxGeometry>
        </mxCell>
        <mxCell id="srRdRN-oWmKrugsw8aTW-34" value="temp vars are initiated/resetted" style="whiteSpace=wrap;html=1;" vertex="1" parent="1">
          <mxGeometry x="200" y="1520" width="100" height="80" as="geometry" />
        </mxCell>
        <mxCell id="srRdRN-oWmKrugsw8aTW-35" style="edgeStyle=orthogonalEdgeStyle;rounded=0;orthogonalLoop=1;jettySize=auto;html=1;exitX=1;exitY=0.5;exitDx=0;exitDy=0;entryX=0;entryY=0.5;entryDx=0;entryDy=0;" edge="1" parent="1" source="srRdRN-oWmKrugsw8aTW-36" target="srRdRN-oWmKrugsw8aTW-38">
          <mxGeometry relative="1" as="geometry" />
        </mxCell>
        <mxCell id="srRdRN-oWmKrugsw8aTW-36" value="ListGoal is iterated and goals are displayed" style="whiteSpace=wrap;html=1;aspect=fixed;" vertex="1" parent="1">
          <mxGeometry x="330" y="1520" width="80" height="80" as="geometry" />
        </mxCell>
        <mxCell id="srRdRN-oWmKrugsw8aTW-37" style="edgeStyle=orthogonalEdgeStyle;rounded=0;orthogonalLoop=1;jettySize=auto;html=1;exitX=1;exitY=0.5;exitDx=0;exitDy=0;entryX=0;entryY=0.5;entryDx=0;entryDy=0;" edge="1" parent="1" source="srRdRN-oWmKrugsw8aTW-38" target="srRdRN-oWmKrugsw8aTW-39">
          <mxGeometry relative="1" as="geometry" />
        </mxCell>
        <mxCell id="srRdRN-oWmKrugsw8aTW-38" value="User picks a goal record event" style="whiteSpace=wrap;html=1;aspect=fixed;" vertex="1" parent="1">
          <mxGeometry x="434" y="1520" width="80" height="80" as="geometry" />
        </mxCell>
        <mxCell id="srRdRN-oWmKrugsw8aTW-39" value="RecordEvent() method is executed from object picked" style="whiteSpace=wrap;html=1;aspect=fixed;" vertex="1" parent="1">
          <mxGeometry x="540" y="1520" width="80" height="80" as="geometry" />
        </mxCell>
        <mxCell id="srRdRN-oWmKrugsw8aTW-40" style="edgeStyle=orthogonalEdgeStyle;rounded=0;orthogonalLoop=1;jettySize=auto;html=1;exitX=1;exitY=0.5;exitDx=0;exitDy=0;exitPerimeter=0;entryX=0;entryY=0.5;entryDx=0;entryDy=0;" edge="1" parent="1" source="srRdRN-oWmKrugsw8aTW-41" target="srRdRN-oWmKrugsw8aTW-43">
          <mxGeometry relative="1" as="geometry" />
        </mxCell>
        <mxCell id="srRdRN-oWmKrugsw8aTW-41" value="Quit" style="strokeWidth=2;html=1;shape=mxgraph.flowchart.document2;whiteSpace=wrap;size=0.25;" vertex="1" parent="1">
          <mxGeometry x="70" y="1640" width="100" height="60" as="geometry" />
        </mxCell>
        <mxCell id="srRdRN-oWmKrugsw8aTW-43" value="while iteration is stopped" style="whiteSpace=wrap;html=1;aspect=fixed;" vertex="1" parent="1">
          <mxGeometry x="200" y="1630" width="80" height="80" as="geometry" />
        </mxCell>
        <mxCell id="srRdRN-oWmKrugsw8aTW-49" style="edgeStyle=orthogonalEdgeStyle;rounded=0;orthogonalLoop=1;jettySize=auto;html=1;exitX=1;exitY=0.5;exitDx=0;exitDy=0;entryX=0;entryY=0.5;entryDx=0;entryDy=0;" edge="1" parent="1" target="srRdRN-oWmKrugsw8aTW-50">
          <mxGeometry relative="1" as="geometry">
            <mxPoint x="610" y="1450" as="sourcePoint" />
          </mxGeometry>
        </mxCell>
        <mxCell id="srRdRN-oWmKrugsw8aTW-50" value="Child class type is review and constructor is called" style="whiteSpace=wrap;html=1;aspect=fixed;" vertex="1" parent="1">
          <mxGeometry x="636" y="1410" width="80" height="80" as="geometry" />
        </mxCell>
        <mxCell id="srRdRN-oWmKrugsw8aTW-51" style="edgeStyle=orthogonalEdgeStyle;rounded=0;orthogonalLoop=1;jettySize=auto;html=1;exitX=1;exitY=0.5;exitDx=0;exitDy=0;entryX=0;entryY=0.5;entryDx=0;entryDy=0;" edge="1" parent="1" target="srRdRN-oWmKrugsw8aTW-52">
          <mxGeometry relative="1" as="geometry">
            <mxPoint x="716" y="1450" as="sourcePoint" />
          </mxGeometry>
        </mxCell>
        <mxCell id="srRdRN-oWmKrugsw8aTW-52" value="If there&#39;s missing arguments, additional vars are loaded from split" style="whiteSpace=wrap;html=1;" vertex="1" parent="1">
          <mxGeometry x="742" y="1410" width="88" height="80" as="geometry" />
        </mxCell>
        <mxCell id="srRdRN-oWmKrugsw8aTW-53" style="edgeStyle=orthogonalEdgeStyle;rounded=0;orthogonalLoop=1;jettySize=auto;html=1;exitX=1;exitY=0.5;exitDx=0;exitDy=0;entryX=0;entryY=0.5;entryDx=0;entryDy=0;" edge="1" parent="1" target="srRdRN-oWmKrugsw8aTW-54">
          <mxGeometry relative="1" as="geometry">
            <mxPoint x="830" y="1450" as="sourcePoint" />
          </mxGeometry>
        </mxCell>
        <mxCell id="srRdRN-oWmKrugsw8aTW-54" value="Goal object is created and added to list" style="whiteSpace=wrap;html=1;aspect=fixed;" vertex="1" parent="1">
          <mxGeometry x="856" y="1410" width="80" height="80" as="geometry" />
        </mxCell>
        <mxCell id="srRdRN-oWmKrugsw8aTW-55" style="edgeStyle=orthogonalEdgeStyle;rounded=0;orthogonalLoop=1;jettySize=auto;html=1;exitX=1;exitY=0.5;exitDx=0;exitDy=0;entryX=0;entryY=0.5;entryDx=0;entryDy=0;" edge="1" parent="1" target="srRdRN-oWmKrugsw8aTW-56">
          <mxGeometry relative="1" as="geometry">
            <mxPoint x="936" y="1450" as="sourcePoint" />
          </mxGeometry>
        </mxCell>
        <mxCell id="srRdRN-oWmKrugsw8aTW-56" value="new goal list is returned and load in main method" style="whiteSpace=wrap;html=1;aspect=fixed;" vertex="1" parent="1">
          <mxGeometry x="962" y="1410" width="80" height="80" as="geometry" />
        </mxCell>
        <mxCell id="srRdRN-oWmKrugsw8aTW-57" style="edgeStyle=orthogonalEdgeStyle;rounded=0;orthogonalLoop=1;jettySize=auto;html=1;exitX=1;exitY=0.5;exitDx=0;exitDy=0;entryX=0;entryY=0.5;entryDx=0;entryDy=0;" edge="1" parent="1" target="srRdRN-oWmKrugsw8aTW-58">
          <mxGeometry relative="1" as="geometry">
            <mxPoint x="620" y="1560" as="sourcePoint" />
          </mxGeometry>
        </mxCell>
        <mxCell id="srRdRN-oWmKrugsw8aTW-58" value="Goal List is iterated and CalculatePoints() is executed to provide points summatory" style="whiteSpace=wrap;html=1;" vertex="1" parent="1">
          <mxGeometry x="646" y="1520" width="114" height="80" as="geometry" />
        </mxCell>
      </root>
    </mxGraphModel>
  </diagram>
</mxfile>
